<?xml version="1.0" encoding="utf-8"?>
<!-- Generator: Adobe Illustrator 23.0.1, SVG Export Plug-In . SVG Version: 6.00 Build 0)  -->
<svg version="1.1" id="Layer_1" xmlns="http://www.w3.org/2000/svg" xmlns:xlink="http://www.w3.org/1999/xlink" x="0px" y="0px"
	 viewBox="0 0 63 62" style="enable-background:new 0 0 63 62;" xml:space="preserve">
<style type="text/css">
	.st0{fill:#FFFFFF;}
	.st1{fill:#376343;}
</style>
<g>
	<ellipse class="st0" cx="31.5" cy="47" rx="23.5" ry="9"/>
	<path class="st1" d="M31.5,41c12.7,0,19.8,4.3,20.5,6c-0.7,1.7-7.8,6-20.5,6S11.7,48.7,11,47C11.7,45.3,18.8,41,31.5,41 M31.5,35
		C16.9,35,5,40.4,5,47s11.9,12,26.5,12S58,53.6,58,47S46.1,35,31.5,35L31.5,35z"/>
</g>
<g>
	<ellipse class="st0" cx="31.5" cy="36" rx="23.5" ry="9"/>
	<path class="st1" d="M31.5,30c12.7,0,19.8,4.3,20.5,6c-0.7,1.7-7.8,6-20.5,6S11.7,37.7,11,36C11.7,34.3,18.8,30,31.5,30 M31.5,24
		C16.9,24,5,29.4,5,36s11.9,12,26.5,12S58,42.6,58,36S46.1,24,31.5,24L31.5,24z"/>
</g>
<g>
	<ellipse class="st0" cx="31.5" cy="25" rx="23.5" ry="9"/>
	<path class="st1" d="M31.5,19c12.7,0,19.8,4.3,20.5,6c-0.7,1.7-7.8,6-20.5,6S11.7,26.7,11,25C11.7,23.3,18.8,19,31.5,19 M31.5,13
		C16.9,13,5,18.4,5,25s11.9,12,26.5,12S58,31.6,58,25S46.1,13,31.5,13L31.5,13z"/>
</g>
<g>
	<ellipse class="st0" cx="31.5" cy="14" rx="23.5" ry="9"/>
	<path class="st1" d="M31.5,8c12.7,0,19.8,4.3,20.5,6c-0.7,1.7-7.8,6-20.5,6S11.7,15.7,11,14C11.7,12.3,18.8,8,31.5,8 M31.5,2
		C16.9,2,5,7.4,5,14s11.9,12,26.5,12S58,20.6,58,14S46.1,2,31.5,2L31.5,2z"/>
</g>
<g>
	<rect x="7.5" y="15.5" class="st0" width="1" height="30"/>
	<polygon class="st1" points="11,13 5,13 5,48 11,48 11,13 	"/>
</g>
<g>
	<rect x="52" y="14" class="st1" width="6" height="35"/>
	<polygon class="st1" points="58,14 52,14 52,49 58,49 58,14 	"/>
</g>
</svg>
