<svg id="Layer_1" data-name="Layer 1" xmlns="http://www.w3.org/2000/svg" viewBox="0 0 178.54 177"><defs><style>.cls-1{fill:#365dd8;}.cls-2{fill:#fff;stroke:#fff;stroke-miterlimit:10;}</style></defs><title>microchip</title><path class="cls-1" d="M141.53,28H40.47A11.48,11.48,0,0,0,29,39.47V140.53A11.48,11.48,0,0,0,40.47,152H141.53A11.48,11.48,0,0,0,153,140.53V39.47A11.48,11.48,0,0,0,141.53,28ZM142,133a8,8,0,0,1-8,8H48a8,8,0,0,1-8-8V47a8,8,0,0,1,8-8h86a8,8,0,0,1,8,8Z" transform="translate(-2.12 -2)"/><rect class="cls-1" x="41.88" width="10" height="31" rx="3.88"/><rect class="cls-1" x="125.88" width="10" height="31" rx="3.88"/><rect class="cls-1" x="98.88" width="10" height="77" rx="5"/><rect class="cls-1" x="70.88" width="10" height="56" rx="5"/><rect class="cls-1" x="149.35" y="40.5" width="31" height="10" rx="3.88" transform="translate(-2.28 -1.42) rotate(-0.2)"/><rect class="cls-1" x="149.65" y="124.5" width="31" height="10" rx="3.88" transform="translate(-2.57 -1.41) rotate(-0.2)"/><rect class="cls-1" x="149.55" y="97.5" width="31" height="10" rx="3.88" transform="translate(-2.48 -1.41) rotate(-0.2)"/><rect class="cls-1" x="149.45" y="69.5" width="31" height="10" rx="3.88" transform="translate(-2.38 -1.42) rotate(-0.2)"/><rect class="cls-1" x="149.35" y="40.5" width="31" height="10" rx="3.88" transform="translate(-2.28 -1.42) rotate(-0.2)"/><rect class="cls-1" x="149.65" y="124.5" width="31" height="10" rx="3.88" transform="translate(-2.57 -1.41) rotate(-0.2)"/><rect class="cls-1" x="149.55" y="97.5" width="31" height="10" rx="3.88" transform="translate(-2.48 -1.41) rotate(-0.2)"/><rect class="cls-1" x="149.45" y="69.5" width="31" height="10" rx="3.88" transform="translate(-2.38 -1.42) rotate(-0.2)"/><rect class="cls-1" x="149.35" y="40.5" width="31" height="10" rx="3.88" transform="translate(-2.28 -1.42) rotate(-0.2)"/><rect class="cls-1" x="99" y="124.59" width="81.65" height="10" rx="5" transform="translate(-2.57 -1.5) rotate(-0.2)"/><rect class="cls-1" x="128" y="97.54" width="52.55" height="10" rx="5" transform="translate(-2.48 -1.45) rotate(-0.2)"/><rect class="cls-1" x="149.45" y="69.5" width="31" height="10" rx="3.88" transform="translate(-2.38 -1.42) rotate(-0.2)"/><rect class="cls-1" x="2.87" y="126.5" width="31" height="10" rx="3.88" transform="translate(-3.29 -1.83) rotate(-0.51)"/><rect class="cls-1" x="2.13" y="42.5" width="31" height="10" rx="3.88" transform="translate(-2.54 -1.84) rotate(-0.51)"/><rect class="cls-1" x="2.37" y="69.5" width="31.66" height="10" rx="3.67" transform="translate(-2.78 -1.83) rotate(-0.51)"/><rect class="cls-1" x="2.62" y="97.36" width="63.39" height="10" rx="4.74" transform="translate(-3.03 -1.69) rotate(-0.51)"/><rect class="cls-1" x="39.88" y="146" width="10" height="31" rx="3.88"/><rect class="cls-1" x="123.88" y="146" width="10" height="31" rx="3.88"/><rect class="cls-1" x="96.88" y="146" width="10" height="31" rx="3.88"/><rect class="cls-1" x="68.88" y="146" width="10" height="31" rx="3.88"/><rect class="cls-1" x="55.5" y="57.5" width="31" height="10" rx="3.88" transform="translate(-23.83 79.26) rotate(-52.8)"/><rect class="cls-1" x="88.72" y="75.91" width="24.5" height="10" rx="3.47" transform="translate(-26.64 110.41) rotate(-52.8)"/><rect class="cls-1" x="64.56" y="93.52" width="10" height="25.56" rx="3.54" transform="translate(-58.65 119.7) rotate(-63.76)"/><circle class="cls-1" cx="60.38" cy="72.5" r="9.5"/><circle class="cls-2" cx="60.38" cy="72.5" r="6.48"/><circle class="cls-1" cx="96.38" cy="127.5" r="9.5"/><circle class="cls-2" cx="96.38" cy="127.5" r="6.48"/><circle class="cls-1" cx="96.38" cy="127.5" r="9.5"/><circle class="cls-2" cx="96.38" cy="127.5" r="6.48"/><circle class="cls-1" cx="91.38" cy="89.5" r="9.5"/><circle class="cls-2" cx="91.38" cy="89.5" r="6.48"/><circle class="cls-1" cx="123.38" cy="100.5" r="9.5"/><circle class="cls-2" cx="123.38" cy="100.5" r="6.48"/><circle class="cls-1" cx="123.38" cy="100.5" r="9.5"/><circle class="cls-2" cx="123.38" cy="100.5" r="6.48"/><circle class="cls-1" cx="77.38" cy="109.5" r="9.5"/><circle class="cls-2" cx="77.38" cy="109.5" r="6.48"/><circle class="cls-1" cx="77.38" cy="109.5" r="9.5"/><circle class="cls-2" cx="77.38" cy="109.5" r="6.48"/></svg>