<?xml version="1.0" encoding="utf-8"?>
<!-- Generator: Adobe Illustrator 23.0.1, SVG Export Plug-In . SVG Version: 6.00 Build 0)  -->
<svg version="1.1" id="Layer_1" xmlns="http://www.w3.org/2000/svg" xmlns:xlink="http://www.w3.org/1999/xlink" x="0px" y="0px"
	 viewBox="0 0 293 141" style="enable-background:new 0 0 293 141;" xml:space="preserve">
<style type="text/css">
	.st0{fill:#FFFFFF;}
	.st1{fill:#FFFFFF;stroke:#000000;stroke-miterlimit:10;}
	.st2{font-family:'MyriadPro-Regular';}
	.st3{font-size:8.5984px;}
	.st4{font-size:7.1653px;}
	.st5{fill:#EBF095;stroke:#EBF095;stroke-miterlimit:10;}
	.st6{fill:none;stroke:#000000;stroke-width:0.25;stroke-miterlimit:10;}
	.st7{fill:#21C4EA;stroke:#13687F;stroke-miterlimit:10;}
	.st8{fill:#FFFFFF;stroke:#13687F;stroke-miterlimit:10;}
	.st9{fill:#32B239;stroke:#0B6827;stroke-miterlimit:10;}
	.st10{fill:#EBF095;stroke:#EBF095;stroke-width:1.5;stroke-miterlimit:10;}
	.st11{fill:#EBF095;stroke:#EBF095;stroke-width:0.5;stroke-miterlimit:10;}
	.st12{fill:#E29A44;stroke:#9B7A10;stroke-width:0.5;stroke-miterlimit:10;}
	.st13{fill:none;stroke:#13687F;stroke-miterlimit:10;}
	.st14{fill:#E2DD1E;stroke:#13687F;stroke-miterlimit:10;}
	.st15{fill:#E04C9A;stroke:#13687F;stroke-width:2;stroke-miterlimit:10;}
	.st16{fill:#EBF095;stroke:#EBF095;stroke-width:1.3;stroke-miterlimit:10;}
	.st17{fill:#EBF095;stroke:#EBF095;stroke-width:0.4;stroke-miterlimit:10;}
	.st18{fill:#FFFFFF;stroke:#000000;stroke-width:0.5;stroke-miterlimit:10;}
	.st19{fill:#FFFFFF;stroke:#FFFFFF;stroke-width:1.5;stroke-miterlimit:10;}
</style>
<g>
	<g>
		<rect x="18.5" y="31.6" class="st0" width="59.9" height="86.4"/>
		<path d="M78,32.1v85.4H19V32.1h23.2h10.1H78 M79,31.1H52.4H42.3H18v87.4H79V31.1L79,31.1z"/>
	</g>
	<g>
		<line class="st1" x1="79" y1="39.3" x2="94" y2="39.3"/>
		<line class="st1" x1="79" y1="109.6" x2="94" y2="109.6"/>
		<line class="st1" x1="79" y1="83.8" x2="94" y2="83.8"/>
		<line class="st1" x1="79" y1="60.1" x2="94" y2="60.1"/>
	</g>
	<g>
		<line class="st1" x1="3" y1="38.6" x2="18" y2="38.6"/>
		<line class="st1" x1="3" y1="108.8" x2="18" y2="108.8"/>
		<line class="st1" x1="3" y1="83.1" x2="18" y2="83.1"/>
		<line class="st1" x1="3" y1="59.4" x2="18" y2="59.4"/>
	</g>
	<text transform="matrix(1 0 0 1 35.0815 52.564)" class="st2 st3">IC 1000</text>
	<text transform="matrix(1 0 0 1 22.5117 41.7681)" class="st2 st4">1</text>
	<text transform="matrix(1 0 0 1 22.3174 62.8105)" class="st2 st4">2</text>
	<text transform="matrix(1 0 0 1 22.4844 86.3135)" class="st2 st4">3</text>
	<text transform="matrix(1 0 0 1 22.5239 111.3301)" class="st2 st4">4</text>
	<text transform="matrix(1 0 0 1 70.4956 42.0322)" class="st2 st4">5</text>
	<text transform="matrix(1 0 0 1 70.2915 63.0449)" class="st2 st4">6</text>
	<text transform="matrix(1 0 0 1 70.3853 86.0488)" class="st2 st4">7</text>
	<text transform="matrix(1 0 0 1 70.3027 111.5537)" class="st2 st4">8</text>
	<g>
		<path class="st0" d="M48.1,42.1c-4.5,0-8.1-4.8-8.1-10.6c0-5.8,3.6-10.6,8.1-10.6c4.5,0,8.1,4.8,8.1,10.6
			C56.2,37.3,52.6,42.1,48.1,42.1z"/>
		<path d="M48.1,21.4c4.2,0,7.6,4.5,7.6,10.1s-3.4,10.1-7.6,10.1c-4.2,0-7.6-4.5-7.6-10.1S44,21.4,48.1,21.4 M48.1,20.4
			c-4.7,0-8.6,5-8.6,11.1c0,6.1,3.8,11.1,8.6,11.1s8.6-5,8.6-11.1C56.7,25.3,52.9,20.4,48.1,20.4L48.1,20.4z"/>
	</g>
	<rect x="30.2" y="15.3" class="st5" width="34.4" height="15.8"/>
</g>
<line class="st6" x1="39.2" y1="31.5" x2="56.4" y2="31.5"/>
<path class="st7" d="M279.5,135.8H208c-3.7,0-6.6-3-6.6-6.6V9.6c0-3.7,3-6.6,6.6-6.6h71.6c3.7,0,6.6,3,6.6,6.6v119.5
	C286.2,132.8,283.2,135.8,279.5,135.8z"/>
<rect x="188.1" y="20.6" class="st8" width="22.3" height="7.7"/>
<rect x="188.1" y="33.4" class="st8" width="22.3" height="7.7"/>
<rect x="188.9" y="110.5" class="st8" width="22.3" height="7.7"/>
<rect x="188.9" y="98.5" class="st8" width="22.3" height="7.7"/>
<rect x="278.9" y="20.6" class="st8" width="11.6" height="7.7"/>
<rect x="278.9" y="33.4" class="st8" width="11.6" height="7.7"/>
<rect x="278" y="98.5" class="st8" width="11.5" height="7.7"/>
<rect x="278" y="110.5" class="st8" width="10.5" height="7.7"/>
<rect x="257.5" y="6" class="st9" width="10.3" height="22.3"/>
<rect x="227.5" y="115.7" transform="matrix(-1.836970e-16 1 -1 -1.836970e-16 359.4017 -105.825)" class="st9" width="10.3" height="22.3"/>
<rect x="253.2" y="42.9" transform="matrix(-1.836970e-16 1 -1 -1.836970e-16 319.2097 -201.843)" class="st9" width="14.6" height="31.6"/>
<rect x="287.4" y="11.1" class="st10" width="3.6" height="38.5"/>
<rect x="287" y="87" class="st11" width="4.5" height="38.5"/>
<g>
	<rect x="251.5" y="7.7" class="st12" width="7.7" height="1.7"/>
	<rect x="251.5" y="12" class="st12" width="7.7" height="1.7"/>
	<rect x="251.5" y="16.3" class="st12" width="7.7" height="1.7"/>
	<rect x="251.5" y="24.8" class="st12" width="7.7" height="1.7"/>
	<rect x="251.5" y="20.6" class="st12" width="7.7" height="1.7"/>
</g>
<g>
	<rect x="266" y="7.7" class="st12" width="7.7" height="1.7"/>
	<rect x="266" y="12" class="st12" width="7.7" height="1.7"/>
	<rect x="266" y="16.3" class="st12" width="7.7" height="1.7"/>
	<rect x="266" y="24.8" class="st12" width="7.7" height="1.7"/>
	<rect x="266" y="20.6" class="st12" width="7.7" height="1.7"/>
</g>
<rect x="211.2" y="58.3" class="st9" width="10.3" height="22.3"/>
<g>
	<rect x="205.2" y="60" class="st12" width="7.7" height="1.7"/>
	<rect x="205.2" y="64.3" class="st12" width="7.7" height="1.7"/>
	<rect x="205.2" y="68.5" class="st12" width="7.7" height="1.7"/>
	<rect x="205.2" y="77.1" class="st12" width="7.7" height="1.7"/>
	<rect x="205.2" y="72.8" class="st12" width="7.7" height="1.7"/>
</g>
<g>
	<rect x="219.8" y="60" class="st12" width="7.7" height="1.7"/>
	<rect x="219.8" y="64.3" class="st12" width="7.7" height="1.7"/>
	<rect x="219.8" y="68.5" class="st12" width="7.7" height="1.7"/>
	<rect x="219.8" y="77.1" class="st12" width="7.7" height="1.7"/>
	<rect x="219.8" y="72.8" class="st12" width="7.7" height="1.7"/>
</g>
<g>
	<polyline class="st13" points="210.3,23.5 225.8,23.1 238.6,36 	"/>
	<circle class="st14" cx="238.6" cy="36" r="4.3"/>
</g>
<g>
	<polyline class="st13" points="210.3,37.2 225.8,36.8 238.6,49.7 	"/>
	<circle class="st14" cx="238.6" cy="49.7" r="4.3"/>
</g>
<g>
	<polyline class="st13" points="272.9,65.8 273.4,81.2 260.7,94.2 	"/>
	<circle class="st14" cx="260.7" cy="94.2" r="4.3"/>
</g>
<g>
	<polyline class="st13" points="211.2,103.3 226.6,103.7 239.5,91.1 	"/>
	<ellipse class="st14" cx="239.5" cy="91.1" rx="4.3" ry="4.2"/>
</g>
<g>
	<polyline class="st13" points="211.2,114.5 226.6,114.8 239.5,102.3 	"/>
	<ellipse class="st14" cx="239.5" cy="102.3" rx="4.3" ry="4.2"/>
</g>
<circle class="st15" cx="262.2" cy="110.9" r="5.6"/>
<circle class="st15" cx="262.6" cy="125.9" r="5.6"/>
<rect x="179.5" y="12.9" class="st16" width="20.6" height="38.5"/>
<rect x="179.9" y="90.4" class="st17" width="20.6" height="38.5"/>
<g>
	<path class="st18" d="M166.5,58.5v18c0,1.6,1.9,2.6,3.2,1.6l11.7-9c1-0.8,1-2.4,0-3.2l-11.7-9C168.4,55.9,166.5,56.9,166.5,58.5z"
		/>
	<path class="st18" d="M166.4,74.5h-50.7c-1.7,0-3.1-1.4-3.1-3.1v-6.7c0-1.7,1.4-3.1,3.1-3.1h50.7c1.7,0,3.1,1.4,3.1,3.1v6.7
		C169.5,73.1,168.1,74.5,166.4,74.5z"/>
	<rect x="167.5" y="60.5" class="st19" width="3.5" height="14.5"/>
</g>
</svg>
